<?xml version="1.0" encoding="UTF-8"?>
<svg width="24px" height="24px" viewBox="0 0 24 24" stroke-width="1.5" fill="none"
    xmlns="http://www.w3.org/2000/svg" color="#000000">
    <path d="M7 8.01l.01-.011M7 16.01l.01-.011M17 8.01l.01-.011M17 16.01l.01-.011M7 12.01l.01-.011M17 12.01l.01-.011M7 4h10M7 20h10" stroke="#000000" stroke-width="1.5" stroke-linecap="round" stroke-linejoin="round"></path>
    <path d="M21 3v18a2 2 0 01-2 2H5a2 2 0 01-2-2V3a2 2 0 012-2h14a2 2 0 012 2zM21 9H3M21 15H3" stroke="#000000" stroke-width="1.5"></path>
</svg>